<svg id="Layer_1" data-name="Layer 1" xmlns="http://www.w3.org/2000/svg" viewBox="0 0 400 400"><defs><style>.cls-1{fill:#ec008c;}</style></defs><title>Artboard 1</title><path class="cls-1" d="M172.76,257.27v-97a39.22,39.22,0,0,1,13.16-5.89,62.15,62.15,0,0,1,15.51-2q11.79,0,18.67,5.69T227,176V268.7q0,9.84,2.56,15.92a22.56,22.56,0,0,0,7.28,9.62A26.47,26.47,0,0,0,248.39,299a92,92,0,0,0,15.52,1.18A125.79,125.79,0,0,0,281.4,299a92.75,92.75,0,0,0,12.38-2.36v-123q0-34.58-24-54t-68.38-19.45q-24.75,0-45,5.89t-33.58,15.32a47.78,47.78,0,0,0-12.39,12.18Q106,140.22,106,150.82V251C127,247.13,154.27,244.82,172.76,257.27Z"/></svg>